<?xml version="1.0" encoding="UTF-8" standalone="no"?> <svg width="64" height="64" viewBox="0 0 64 64" fill="none" xmlns="http://www.w3.org/2000/svg">
<path d="M55 6.75H48.38V4C48.38 3.66848 48.2483 3.35054 48.0139 3.11612C47.7795 2.8817 47.4615 2.75 47.13 2.75C46.7985 2.75 46.4805 2.8817 46.2461 3.11612C46.0117 3.35054 45.88 3.66848 45.88 4V6.75H33.25V4C33.25 3.66848 33.1183 3.35054 32.8839 3.11612C32.6495 2.8817 32.3315 2.75 32 2.75C31.6685 2.75 31.3505 2.8817 31.1161 3.11612C30.8817 3.35054 30.75 3.66848 30.75 4V6.75H18.12V4C18.12 3.66848 17.9883 3.35054 17.7539 3.11612C17.5195 2.8817 17.2015 2.75 16.87 2.75C16.5385 2.75 16.2205 2.8817 15.9861 3.11612C15.7517 3.35054 15.62 3.66848 15.62 4V6.75H9C7.87364 6.75264 6.79417 7.20126 5.99771 7.99771C5.20126 8.79417 4.75264 9.87364 4.75 11V57C4.75264 58.1264 5.20126 59.2058 5.99771 60.0023C6.79417 60.7987 7.87364 61.2474 9 61.25H48.71C51.5046 61.2474 54.1839 60.136 56.16 58.16C58.136 56.1839 59.2474 53.5046 59.25 50.71V11C59.2474 9.87364 58.7987 8.79417 58.0023 7.99771C57.2058 7.20126 56.1264 6.75264 55 6.75V6.75ZM9 9.25H15.62V12C15.62 12.3315 15.7517 12.6495 15.9861 12.8839C16.2205 13.1183 16.5385 13.25 16.87 13.25C17.2015 13.25 17.5195 13.1183 17.7539 12.8839C17.9883 12.6495 18.12 12.3315 18.12 12V9.25H30.75V12C30.75 12.3315 30.8817 12.6495 31.1161 12.8839C31.3505 13.1183 31.6685 13.25 32 13.25C32.3315 13.25 32.6495 13.1183 32.8839 12.8839C33.1183 12.6495 33.25 12.3315 33.25 12V9.25H45.88V12C45.88 12.3315 46.0117 12.6495 46.2461 12.8839C46.4805 13.1183 46.7985 13.25 47.13 13.25C47.4615 13.25 47.7795 13.1183 48.0139 12.8839C48.2483 12.6495 48.38 12.3315 48.38 12V9.25H55C55.4633 9.25263 55.9069 9.43784 56.2345 9.76546C56.5622 10.0931 56.7474 10.5367 56.75 11V16.5H7.25V11C7.25263 10.5367 7.43784 10.0931 7.76546 9.76546C8.09309 9.43784 8.53668 9.25263 9 9.25V9.25ZM7.25 57V19H56.75V48.85H48.1C47.9355 48.8487 47.7723 48.8801 47.6201 48.9424C47.4678 49.0048 47.3295 49.0968 47.2131 49.2131C47.0968 49.3295 47.0048 49.4678 46.9424 49.6201C46.8801 49.7723 46.8487 49.9355 46.85 50.1V58.75H9C8.53668 58.7474 8.09309 58.5622 7.76546 58.2345C7.43784 57.9069 7.25263 57.4633 7.25 57V57ZM49.35 58.72V51.35H56.72C56.565 53.2529 55.7388 55.0388 54.3888 56.3888C53.0388 57.7388 51.2529 58.565 49.35 58.72V58.72Z" fill="#1B4196"/>
<path d="M47.4601 31.3799C47.7832 31.0056 48.0293 30.5714 48.1846 30.102C48.3398 29.6326 48.4011 29.1372 48.3648 28.6441C48.3286 28.151 48.1957 27.6699 47.9735 27.2282C47.7514 26.7865 47.4444 26.3929 47.0701 26.0699C46.6958 25.7468 46.2616 25.5007 45.7922 25.3454C45.3228 25.1902 44.8274 25.1289 44.3343 25.1651C43.8413 25.2014 43.3601 25.3343 42.9185 25.5565C42.4768 25.7786 42.0832 26.0856 41.7601 26.4599L29.5801 40.5799C29.4652 40.715 29.3228 40.8241 29.1625 40.9C29.0021 40.9759 28.8275 41.0167 28.6501 41.0199C28.4733 41.0246 28.2975 40.9923 28.1339 40.9252C27.9703 40.858 27.8226 40.7574 27.7001 40.6299L22.1201 34.7799C21.4305 34.0558 20.4816 33.6354 19.482 33.611C18.4825 33.5866 17.5142 33.9603 16.7901 34.6499C16.4298 34.9923 16.1406 35.4025 15.939 35.8569C15.7374 36.3113 15.6274 36.801 15.6154 37.2979C15.6033 37.7949 15.6894 38.2893 15.8686 38.753C16.0479 39.2166 16.3169 39.6403 16.6601 39.9999L26.0801 49.8699C26.4367 50.231 26.8619 50.517 27.3308 50.7111C27.7997 50.9052 28.3027 51.0034 28.8101 50.9999H28.9001C29.4255 50.9881 29.9425 50.8663 30.4179 50.6424C30.8933 50.4185 31.3164 50.0974 31.6601 49.6999L47.4601 31.3799ZM28.8401 48.5199C28.6618 48.5294 28.4837 48.4984 28.3191 48.4291C28.1546 48.3598 28.0079 48.2541 27.8901 48.1199L18.4701 38.2499C18.2403 38.0054 18.1166 37.68 18.1259 37.3446C18.1353 37.0092 18.277 36.6911 18.5201 36.4599C18.6349 36.347 18.7708 36.258 18.9201 36.198C19.0695 36.1379 19.2292 36.108 19.3901 36.1099C19.726 36.12 20.045 36.2597 20.2801 36.4999L25.8601 42.3499C26.2263 42.7259 26.6651 43.0236 27.1499 43.2247C27.6346 43.4259 28.1553 43.5263 28.6801 43.5199C29.2061 43.5062 29.7234 43.3826 30.1988 43.157C30.6741 42.9314 31.097 42.6087 31.4401 42.2099L43.6501 28.0899C43.8743 27.85 44.1827 27.7062 44.5105 27.6887C44.8384 27.6713 45.1603 27.7815 45.4087 27.9962C45.6571 28.211 45.8126 28.5136 45.8427 28.8405C45.8728 29.1675 45.7751 29.4934 45.5701 29.7499L29.7701 48.0799C29.6536 48.2131 29.5109 48.3209 29.3509 48.3966C29.1909 48.4723 29.017 48.5143 28.8401 48.5199Z" fill="#1B4196"/>
</svg>
