<svg width="20" height="19" viewBox="0 0 20 19" fill="none" xmlns="http://www.w3.org/2000/svg">
<mask id="mask0_42_1087" style="mask-type:luminance" maskUnits="userSpaceOnUse" x="2" y="3" width="16" height="16">
<path d="M2.66666 3.33337H17.3333V18.9167H2.66666V3.33337Z" fill="white"/>
</mask>
<g mask="url(#mask0_42_1087)">
<path d="M17.0729 10.0469L10.4323 4.16669L3.78645 10.0521V18.4584C3.78645 18.6771 3.95833 18.849 4.17708 18.849H8.33333V15.1615C8.33333 14.9479 8.5052 14.7709 8.72395 14.7709H12.1354C12.3542 14.7709 12.526 14.9479 12.526 15.1615V18.849H16.6823C16.8958 18.849 17.0729 18.6771 17.0729 18.4584V10.0469Z" fill="#1B4196"/>
</g>
<mask id="mask1_42_1087" style="mask-type:luminance" maskUnits="userSpaceOnUse" x="0" y="0" width="20" height="12">
<path d="M0.96875 0.942749H19.9375V11.3334H0.96875V0.942749Z" fill="white"/>
</mask>
<g mask="url(#mask1_42_1087)">
<path d="M10.3906 0.947937L0.96875 9.29169L1.95833 10.4115L10.4323 2.91148L18.901 10.4115L19.8906 9.29169L10.4688 0.947937L10.4323 0.989604L10.3906 0.947937Z" fill="#1B4196"/>
</g>
<path d="M3.78645 2.15106H6.17187L6.15624 3.56252L3.78645 5.70315V2.15106Z" fill="#1B4196"/>
</svg>
