<svg width="74" height="74" viewBox="0 0 74 74" fill="none" xmlns="http://www.w3.org/2000/svg">
<path d="M62.6667 7.66665H55.3334V3.99998C55.3334 3.02752 54.9471 2.09489 54.2594 1.40725C53.5718 0.719621 52.6392 0.333313 51.6667 0.333313C50.6942 0.333313 49.7616 0.719621 49.074 1.40725C48.3863 2.09489 48 3.02752 48 3.99998V7.66665H26V3.99998C26 3.02752 25.6137 2.09489 24.9261 1.40725C24.2385 0.719621 23.3058 0.333313 22.3334 0.333313C21.3609 0.333313 20.4283 0.719621 19.7406 1.40725C19.053 2.09489 18.6667 3.02752 18.6667 3.99998V7.66665H11.3334C8.41599 7.66665 5.6181 8.82557 3.5552 10.8885C1.4923 12.9514 0.333374 15.7493 0.333374 18.6666V62.6666C0.333374 65.584 1.4923 68.3819 3.5552 70.4448C5.6181 72.5077 8.41599 73.6666 11.3334 73.6666H62.6667C65.5841 73.6666 68.382 72.5077 70.4449 70.4448C72.5078 68.3819 73.6667 65.584 73.6667 62.6666V18.6666C73.6667 15.7493 72.5078 12.9514 70.4449 10.8885C68.382 8.82557 65.5841 7.66665 62.6667 7.66665V7.66665ZM66.3334 62.6666C66.3334 63.6391 65.9471 64.5717 65.2594 65.2594C64.5718 65.947 63.6392 66.3333 62.6667 66.3333H11.3334C10.3609 66.3333 9.42828 65.947 8.74065 65.2594C8.05302 64.5717 7.66671 63.6391 7.66671 62.6666V37H66.3334V62.6666ZM66.3334 29.6666H7.66671V18.6666C7.66671 17.6942 8.05302 16.7616 8.74065 16.0739C9.42828 15.3863 10.3609 15 11.3334 15H18.6667V18.6666C18.6667 19.6391 19.053 20.5717 19.7406 21.2594C20.4283 21.947 21.3609 22.3333 22.3334 22.3333C23.3058 22.3333 24.2385 21.947 24.9261 21.2594C25.6137 20.5717 26 19.6391 26 18.6666V15H48V18.6666C48 19.6391 48.3863 20.5717 49.074 21.2594C49.7616 21.947 50.6942 22.3333 51.6667 22.3333C52.6392 22.3333 53.5718 21.947 54.2594 21.2594C54.9471 20.5717 55.3334 19.6391 55.3334 18.6666V15H62.6667C63.6392 15 64.5718 15.3863 65.2594 16.0739C65.9471 16.7616 66.3334 17.6942 66.3334 18.6666V29.6666Z" fill="#1B4196"/>
</svg>
