<svg width="69" height="80" viewBox="0 0 69 80" fill="none" xmlns="http://www.w3.org/2000/svg">
<path d="M34.3022 42.6458C46.0785 42.6458 55.6251 33.0992 55.6251 21.3229C55.6251 9.54659 46.0785 0 34.3022 0C22.5258 0 12.9792 9.54659 12.9792 21.3229C12.9792 33.0992 22.5258 42.6458 34.3022 42.6458Z" fill="#1B4196"/>
<path fill-rule="evenodd" clip-rule="evenodd" d="M68.6042 73.2396C68.6042 76.8218 65.7005 79.7292 62.1146 79.7292H6.48958C2.90362 79.7292 0 76.8218 0 73.2396C0 57.3679 12.8679 44.5 28.7396 44.5H39.8646C55.7362 44.5 68.6042 57.3679 68.6042 73.2396ZM65.9008 75.943C65.8526 75.9615 65.8229 75.9838 65.8229 76.0208L65.9008 75.943Z" fill="#1B4196"/>
</svg>
